<svg width="50" height="50" fill="none" xmlns="http://www.w3.org/2000/svg"><g clip-path="url(#a)"><path d="M8.333 41.444V47m33.334-5.556V47" stroke="#21022C" stroke-width="5" stroke-linecap="round" stroke-linejoin="round"/><mask id="b" fill="#fff"><path d="M5.333 34.667V13c0-3.448.873-6.754 2.427-9.192C9.314 1.37 11.422 0 13.62 0h22.094c2.198 0 4.305 1.37 5.86 3.808C43.126 6.246 44 9.552 44 13v21.667"/></mask><path d="M5.333 34.667V13c0-3.448.873-6.754 2.427-9.192C9.314 1.37 11.422 0 13.62 0h22.094c2.198 0 4.305 1.37 5.86 3.808C43.126 6.246 44 9.552 44 13v21.667" fill="#FDE5D2"/><path d="M1.333 34.667a4 4 0 0 0 8 0h-8ZM13.62 0v-4 4Zm22.095 0v-4 4ZM44 13h4-4Zm-4 21.667a4 4 0 0 0 8 0h-8Zm-30.667 0V13h-8v21.667h8Zm0-21.667c0-2.834.729-5.361 1.8-7.042l-6.746-4.3C2.351 4.853 1.333 8.939 1.333 13h8Zm1.8-7.042C12.213 4.264 13.211 4 13.62 4v-8C9.632-4 6.415-1.524 4.387 1.658l6.746 4.3ZM13.62 4h22.095v-8H13.62v8Zm22.095 0c.409 0 1.406.264 2.486 1.958l6.746-4.3C42.918-1.524 39.701-4 35.714-4v8ZM38.2 5.958C39.272 7.638 40 10.166 40 13h8c0-4.06-1.017-8.147-3.054-11.342l-6.746 4.3ZM40 13v21.667h8V13h-8Z" fill="#21022C" mask="url(#b)"/><path d="M9.111 33.333a2 2 0 0 0 2 2H38.89a2 2 0 0 0 2-2v-5.555a3.555 3.555 0 1 1 7.111 0v11.11a3.555 3.555 0 0 1-3.556 3.556H5.556A3.556 3.556 0 0 1 2 38.89V27.778a3.555 3.555 0 1 1 7.111 0v5.555Z" fill="#FDE5D2" stroke="#21022C" stroke-width="4" stroke-linecap="round" stroke-linejoin="round"/></g><defs><clipPath id="a"><path fill="#fff" d="M0 0h50v50H0z"/></clipPath></defs></svg>