<svg width="50" height="50" viewBox="0 0 50 50" fill="none" xmlns="http://www.w3.org/2000/svg"><path d="M24.5 3C12 3 3 13.95 3 25C3 39 14 47 25 47C37.5 47 46.9999 36.7577 46.9999 25.7077C46.9999 12 37 3 24.5 3Z" fill="#FDE5D2"/><path d="M30 15L25 20L20 25L30 35" stroke="#21022C" stroke-width="4" stroke-linecap="round" stroke-linejoin="round"/><path d="M2 25C2 12.302 12.2822 2 24.975 2C37.6967 2 48 12.3059 48 25C48 37.6941 37.6967 48 24.975 48C12.2822 48 2 37.698 2 25Z" stroke="#21022C" stroke-width="4" stroke-linecap="round" stroke-linejoin="round"/></svg>