<svg width="50" height="50" fill="none" xmlns="http://www.w3.org/2000/svg"><path d="M24.5 3C12 3 3 13.95 3 25c0 14 11 22 22 22 12.5 0 22-10.242 22-21.292C47 12 37 3 24.5 3Z" fill="#FDE5D2"/><path d="m30 15-5 5-5 5 10 10" stroke="#21022C" stroke-width="4" stroke-linecap="round" stroke-linejoin="round"/><path d="M2 25C2 12.302 12.282 2 24.975 2 37.697 2 48 12.306 48 25S37.697 48 24.975 48C12.282 48 2 37.698 2 25Z" stroke="#21022C" stroke-width="4" stroke-linecap="round" stroke-linejoin="round"/></svg>