<svg width="50" height="50" fill="none" xmlns="http://www.w3.org/2000/svg"><path d="M27.5 40h-25A2.5 2.5 0 0 1 0 37.5V5a2.5 2.5 0 0 1 2.5-2.5h45A2.5 2.5 0 0 1 50 5v32.5a2.5 2.5 0 0 1-2.5 2.5h-10" fill="#FDE5D2"/><path d="M10 12.5h30m-30 8.75h7.5M10 30h5" stroke="#21022C" stroke-width="3" stroke-linecap="round" stroke-linejoin="round"/><path d="M32.5 36.25a7.5 7.5 0 1 0 0-15 7.5 7.5 0 0 0 0 15Z" stroke="#21022C" stroke-width="3"/><path d="m32.5 45 5 2.5V34.34s-1.425 1.91-5 1.91-5-1.875-5-1.875V47.5l5-2.5Z" fill="#FDE5D2" stroke="#21022C" stroke-width="3" stroke-linecap="round" stroke-linejoin="round"/></svg>