<svg width="50" height="50" viewBox="0 0 50 50" fill="none" xmlns="http://www.w3.org/2000/svg"><path d="M27.5 40.0001H2.5C1.83696 40.0001 1.20107 39.7367 0.732233 39.2678C0.263392 38.799 0 38.1631 0 37.5001V5.00006C0 4.33702 0.263392 3.70113 0.732233 3.23229C1.20107 2.76345 1.83696 2.50006 2.5 2.50006H47.5C48.163 2.50006 48.7989 2.76345 49.2678 3.23229C49.7366 3.70113 50 4.33702 50 5.00006V37.5001C50 38.1631 49.7366 38.799 49.2678 39.2678C48.7989 39.7367 48.163 40.0001 47.5 40.0001H37.5" fill="#FDE5D2"/><path d="M10 12.5001H40" stroke="#21022C" stroke-width="3" stroke-linecap="round" stroke-linejoin="round"/><path d="M10 21.2501H17.5" stroke="#21022C" stroke-width="3" stroke-linecap="round" stroke-linejoin="round"/><path d="M10 30.0001H15" stroke="#21022C" stroke-width="3" stroke-linecap="round" stroke-linejoin="round"/><path d="M32.5 36.2501C34.4891 36.2501 36.3968 35.4599 37.8033 34.0534C39.2098 32.6468 40 30.7392 40 28.7501C40 26.7609 39.2098 24.8533 37.8033 23.4468C36.3968 22.0402 34.4891 21.2501 32.5 21.2501C30.5109 21.2501 28.6032 22.0402 27.1967 23.4468C25.7902 24.8533 25 26.7609 25 28.7501C25 30.7392 25.7902 32.6468 27.1967 34.0534C28.6032 35.4599 30.5109 36.2501 32.5 36.2501V36.2501Z" stroke="#21022C" stroke-width="3"/><path d="M32.5 45L37.5 47.5V34.34C37.5 34.34 36.075 36.25 32.5 36.25C28.925 36.25 27.5 34.375 27.5 34.375V47.5L32.5 45Z" fill="#FDE5D2" stroke="#21022C" stroke-width="3" stroke-linecap="round" stroke-linejoin="round"/></svg>