<svg width="50" height="50" fill="none" xmlns="http://www.w3.org/2000/svg"><g clip-path="url(#a)"><path d="m34.267 23.233-10-10a2.5 2.5 0 0 0-3.534 3.535l5.732 5.732H5v5h21.465l-5.732 5.733a2.5 2.5 0 1 0 3.534 3.535l10-10a2.5 2.5 0 0 0 0-3.535Z" fill="#21022C"/><path d="M37.5 0h-25A7.508 7.508 0 0 0 5 7.5v15h21.465l-5.732-5.732a2.5 2.5 0 0 1 3.534-3.535l10 10a2.5 2.5 0 0 1 0 3.535l-10 10a2.5 2.5 0 0 1-3.534-3.535l5.732-5.733H5v15a7.508 7.508 0 0 0 7.5 7.5h25a7.508 7.508 0 0 0 7.5-7.5v-35A7.508 7.508 0 0 0 37.5 0Z" fill="#FDE5D2"/></g><defs><clipPath id="a"><path fill="#fff" d="M0 0h50v50H0z"/></clipPath></defs></svg>