<svg width="50" height="50" viewBox="0 0 50 50" fill="none" xmlns="http://www.w3.org/2000/svg"><g clip-path="url(#clip0_8_93)"><path d="M34.2675 23.2327L24.2675 13.2327C23.796 12.7773 23.1645 12.5253 22.509 12.531C21.8535 12.5367 21.2265 12.7996 20.763 13.2631C20.2994 13.7266 20.0365 14.3537 20.0308 15.0092C20.0251 15.6647 20.2771 16.2962 20.7325 16.7677L26.465 22.5002H5V27.5002H26.465L20.7325 33.2327C20.4937 33.4633 20.3033 33.7391 20.1722 34.0442C20.0412 34.3492 19.9723 34.6772 19.9694 35.0092C19.9665 35.3411 20.0297 35.6703 20.1554 35.9775C20.2811 36.2848 20.4668 36.5639 20.7015 36.7987C20.9362 37.0334 21.2154 37.219 21.5226 37.3447C21.8299 37.4704 22.159 37.5337 22.491 37.5308C22.8229 37.5279 23.151 37.4589 23.456 37.3279C23.761 37.1969 24.0369 37.0064 24.2675 36.7677L34.2675 26.7677C34.7362 26.2988 34.9995 25.6631 34.9995 25.0002C34.9995 24.3373 34.7362 23.7015 34.2675 23.2327Z" fill="#21022C"/><path d="M37.5 0.000183105H12.5C10.5115 0.00216864 8.60498 0.792983 7.19889 2.19908C5.7928 3.60517 5.00199 5.51167 5 7.50018V22.5002H26.465L20.7325 16.7677C20.2771 16.2962 20.0251 15.6647 20.0308 15.0092C20.0365 14.3537 20.2994 13.7267 20.763 13.2631C21.2265 12.7996 21.8535 12.5367 22.509 12.531C23.1645 12.5253 23.796 12.7773 24.2675 13.2327L34.2675 23.2327C34.7362 23.7015 34.9995 24.3373 34.9995 25.0002C34.9995 25.6631 34.7362 26.2989 34.2675 26.7677L24.2675 36.7677C23.796 37.2231 23.1645 37.4751 22.509 37.4694C21.8535 37.4637 21.2265 37.2007 20.763 36.7372C20.2994 36.2737 20.0365 35.6467 20.0308 34.9912C20.0251 34.3357 20.2771 33.7042 20.7325 33.2327L26.465 27.5002H5V42.5002C5.00199 44.4887 5.7928 46.3952 7.19889 47.8013C8.60498 49.2074 10.5115 49.9982 12.5 50.0002H37.5C39.4885 49.9982 41.395 49.2074 42.8011 47.8013C44.2072 46.3952 44.998 44.4887 45 42.5002V7.50018C44.998 5.51167 44.2072 3.60517 42.8011 2.19908C41.395 0.792983 39.4885 0.00216864 37.5 0.000183105Z" fill="#FDE5D2"/></g><defs><clipPath id="clip0_8_93"><rect width="50" height="50" fill="white" transform="translate(0 0.000183105)"/></clipPath></defs></svg>