<svg width="50" height="50" viewBox="0 0 50 50" fill="none" xmlns="http://www.w3.org/2000/svg"><g clip-path="url(#clip0_8_96)"><path opacity="0.2" d="M25 48.0771C37.745 48.0771 48.0769 37.7452 48.0769 25.0002C48.0769 12.2551 37.745 1.92325 25 1.92325C12.255 1.92325 1.9231 12.2551 1.9231 25.0002C1.9231 37.7452 12.255 48.0771 25 48.0771Z" fill="#F77C1D"/><path d="M50 25.0002C50 20.0557 48.5338 15.2222 45.7867 11.1109C43.0397 6.99971 39.1352 3.7954 34.5671 1.90321C29.9989 0.0110152 24.9723 -0.484068 20.1227 0.480562C15.2732 1.44519 10.8187 3.82621 7.32234 7.32252C3.82603 10.8188 1.44501 15.2734 0.480379 20.1229C-0.484251 24.9725 0.0108321 29.9991 1.90302 34.5673C3.79521 39.1354 6.99952 43.0399 11.1108 45.7869C15.222 48.534 20.0555 50.0002 25 50.0002C31.6285 49.9938 37.9836 47.3579 42.6706 42.6708C47.3577 37.9838 49.9936 31.6286 50 25.0002ZM26.9231 46.0579V30.7694H32.6923C33.2023 30.7694 33.6915 30.5668 34.0521 30.2062C34.4128 29.8455 34.6154 29.3564 34.6154 28.8463C34.6154 28.3363 34.4128 27.8472 34.0521 27.4865C33.6915 27.1259 33.2023 26.9233 32.6923 26.9233H26.9231V21.154C26.9231 20.134 27.3283 19.1557 28.0496 18.4344C28.7709 17.7131 29.7492 17.3079 30.7692 17.3079H34.6154C35.1254 17.3079 35.6146 17.1053 35.9752 16.7446C36.3359 16.384 36.5385 15.8948 36.5385 15.3848C36.5385 14.8748 36.3359 14.3856 35.9752 14.025C35.6146 13.6643 35.1254 13.4617 34.6154 13.4617H30.7692C28.7311 13.4681 26.7782 14.2805 25.337 15.7218C23.8957 17.163 23.0833 19.1159 23.0769 21.154V26.9233H17.3077C16.7977 26.9233 16.3085 27.1259 15.9479 27.4865C15.5872 27.8472 15.3846 28.3363 15.3846 28.8463C15.3846 29.3564 15.5872 29.8455 15.9479 30.2062C16.3085 30.5668 16.7977 30.7694 17.3077 30.7694H23.0769V46.0579C17.6558 45.563 12.6341 42.9972 9.05635 38.8943C5.47865 34.7914 3.62038 29.4672 3.86807 24.0291C4.11577 18.591 6.45037 13.4578 10.3863 9.69708C14.3221 5.93639 19.5563 3.83779 25 3.83779C30.4437 3.83779 35.6779 5.93639 39.6138 9.69708C43.5496 13.4578 45.8842 18.591 46.1319 24.0291C46.3796 29.4672 44.5214 34.7914 40.9437 38.8943C37.366 42.9972 32.3442 45.563 26.9231 46.0579Z" fill="#21022C"/></g><defs><clipPath id="clip0_8_96"><rect width="50" height="50" fill="white" transform="translate(0 0.000183105)"/></clipPath></defs></svg>