<svg width="50" height="50" fill="none" xmlns="http://www.w3.org/2000/svg"><g clip-path="url(#a)"><path opacity=".2" d="M25 48.077c12.745 0 23.077-10.332 23.077-23.077C48.077 12.255 37.745 1.923 25 1.923 12.255 1.923 1.923 12.255 1.923 25c0 12.745 10.332 23.077 23.077 23.077Z" fill="#F77C1D"/><path d="M50 25a25 25 0 1 0-25 25 25.024 25.024 0 0 0 25-25ZM26.923 46.058V30.769h5.77a1.923 1.923 0 1 0 0-3.846h-5.77v-5.769a3.846 3.846 0 0 1 3.846-3.846h3.846a1.923 1.923 0 1 0 0-3.846H30.77a7.716 7.716 0 0 0-7.692 7.692v5.77h-5.77a1.923 1.923 0 1 0 0 3.845h5.77v15.289a21.154 21.154 0 1 1 3.846 0Z" fill="#21022C"/></g><defs><clipPath id="a"><path fill="#fff" d="M0 0h50v50H0z"/></clipPath></defs></svg>