<svg width="50" height="50" fill="none" xmlns="http://www.w3.org/2000/svg"><g clip-path="url(#a)"><path opacity=".2" d="M36 2H14A12 12 0 0 0 2 14v22a12 12 0 0 0 12 12h22a12 12 0 0 0 12-12V14A12 12 0 0 0 36 2ZM25 35a10 10 0 1 1 0-20 10 10 0 0 1 0 20Z" fill="#F77C1D"/><path d="M25 13a12 12 0 1 0 0 24.001 12 12 0 0 0 0-24Zm0 20a8 8 0 1 1 8-8 8.025 8.025 0 0 1-8 8Z" fill="#21022C"/><path d="M36 0H14A14 14 0 0 0 0 14v22a14 14 0 0 0 14 14h22a14 14 0 0 0 14-14V14A14 14 0 0 0 36 0Zm10 36a10 10 0 0 1-10 10H14A10 10 0 0 1 4 36V14A10 10 0 0 1 14 4h22a10 10 0 0 1 10 10v22Z" fill="#21022C"/><path d="M38 15a3 3 0 1 0 0-6 3 3 0 0 0 0 6Z" fill="#21022C"/></g><defs><clipPath id="a"><path fill="#fff" d="M0 0h50v50H0z"/></clipPath></defs></svg>