<svg width="50" height="50" viewBox="0 0 50 50" fill="none" xmlns="http://www.w3.org/2000/svg"><g clip-path="url(#clip0_8_95)"><path opacity="0.2" d="M36 2.00018H14C10.8174 2.00018 7.76516 3.26447 5.51472 5.5149C3.26428 7.76534 2 10.8176 2 14.0002V36.0002C2 39.1828 3.26428 42.235 5.51472 44.4855C7.76516 46.7359 10.8174 48.0002 14 48.0002H36C39.1826 48.0002 42.2348 46.7359 44.4853 44.4855C46.7357 42.235 48 39.1828 48 36.0002V14.0002C48 10.8176 46.7357 7.76534 44.4853 5.5149C42.2348 3.26447 39.1826 2.00018 36 2.00018ZM25 35.0002C23.0222 35.0002 21.0888 34.4137 19.4443 33.3149C17.7998 32.2161 16.5181 30.6543 15.7612 28.827C15.0043 26.9998 14.8063 24.9891 15.1921 23.0493C15.578 21.1095 16.5304 19.3276 17.9289 17.9291C19.3275 16.5306 21.1093 15.5782 23.0491 15.1923C24.9889 14.8065 26.9996 15.0045 28.8268 15.7614C30.6541 16.5183 32.2159 17.8 33.3147 19.4445C34.4135 21.089 35 23.0224 35 25.0002C35 27.6523 33.9464 30.1959 32.0711 32.0713C30.1957 33.9466 27.6522 35.0002 25 35.0002Z" fill="#F77C1D"/><path d="M25 13.0002C22.6266 13.0002 20.3066 13.704 18.3332 15.0225C16.3598 16.3411 14.8217 18.2153 13.9135 20.408C13.0052 22.6007 12.7676 25.0135 13.2306 27.3413C13.6936 29.669 14.8365 31.8072 16.5147 33.4855C18.193 35.1637 20.3312 36.3066 22.6589 36.7696C24.9867 37.2326 27.3995 36.995 29.5922 36.0867C31.7849 35.1785 33.6591 33.6404 34.9776 31.667C36.2962 29.6936 37 27.3736 37 25.0002C37 21.8176 35.7357 18.7653 33.4853 16.5149C31.2349 14.2645 28.1826 13.0002 25 13.0002ZM25 33.0002C23.4178 33.0002 21.871 32.531 20.5554 31.6519C19.2399 30.7729 18.2145 29.5235 17.609 28.0616C17.0035 26.5998 16.845 24.9913 17.1537 23.4395C17.4624 21.8876 18.2243 20.4621 19.3432 19.3433C20.462 18.2245 21.8874 17.4626 23.4393 17.1539C24.9911 16.8452 26.5997 17.0036 28.0615 17.6091C29.5233 18.2146 30.7727 19.24 31.6518 20.5556C32.5308 21.8712 33 23.4179 33 25.0002C32.9934 27.1199 32.1484 29.1509 30.6496 30.6497C29.1507 32.1486 27.1197 32.9936 25 33.0002Z" fill="#21022C"/><path d="M36 0.000183105H14C10.287 0.000183105 6.72601 1.47518 4.1005 4.10069C1.475 6.7262 0 10.2872 0 14.0002V36.0002C0 39.7132 1.475 43.2742 4.1005 45.8997C6.72601 48.5252 10.287 50.0002 14 50.0002H36C39.713 50.0002 43.274 48.5252 45.8995 45.8997C48.525 43.2742 50 39.7132 50 36.0002V14.0002C50 10.2872 48.525 6.7262 45.8995 4.10069C43.274 1.47518 39.713 0.000183105 36 0.000183105ZM46 36.0002C46 37.3134 45.7413 38.6138 45.2388 39.827C44.7362 41.0403 43.9997 42.1427 43.0711 43.0713C42.1425 43.9998 41.0401 44.7364 39.8268 45.239C38.6136 45.7415 37.3132 46.0002 36 46.0002H14C12.6868 46.0002 11.3864 45.7415 10.1732 45.239C8.95991 44.7364 7.85752 43.9998 6.92893 43.0713C6.00035 42.1427 5.26375 41.0403 4.7612 39.827C4.25866 38.6138 4 37.3134 4 36.0002V14.0002C4 11.348 5.05357 8.80448 6.92893 6.92912C8.8043 5.05375 11.3478 4.00018 14 4.00018H36C37.3132 4.00018 38.6136 4.25884 39.8268 4.76139C41.0401 5.26394 42.1425 6.00053 43.0711 6.92912C43.9997 7.8577 44.7362 8.96009 45.2388 10.1733C45.7413 11.3866 46 12.687 46 14.0002V36.0002Z" fill="#21022C"/><path d="M38 15.0002C39.6569 15.0002 41 13.657 41 12.0002C41 10.3433 39.6569 9.00018 38 9.00018C36.3431 9.00018 35 10.3433 35 12.0002C35 13.657 36.3431 15.0002 38 15.0002Z" fill="#21022C"/></g><defs><clipPath id="clip0_8_95"><rect width="50" height="50" fill="white" transform="translate(0 0.000183105)"/></clipPath></defs></svg>