<svg width="50" height="50" fill="none" xmlns="http://www.w3.org/2000/svg"><g clip-path="url(#a)"><path d="M38.337 47.803C36.872 49.21 34.884 50 32.812 50H17.188c-2.072 0-4.06-.79-5.525-2.197-1.465-1.406-2.288-3.314-2.288-5.303v-35c0-1.989.823-3.897 2.288-5.303C13.128.79 15.116 0 17.187 0h15.625c2.073 0 4.06.79 5.525 2.197 1.465 1.406 2.288 3.314 2.288 5.303v35c0 1.99-.823 3.897-2.288 5.303Z" fill="#FDE5D2"/><path d="M30.868 5.252a3.62 3.62 0 0 1-2.43.915h-6.875a3.62 3.62 0 0 1-2.431-.915c-.645-.586-1.007-1.381-1.007-2.21V-.083h13.75v3.125c0 .829-.362 1.624-1.007 2.21Z" fill="#21022C"/></g><defs><clipPath id="a"><path fill="#fff" transform="rotate(-180 25 25)" d="M0 0h50v50H0z"/></clipPath></defs></svg>