<svg width="50" height="50" viewBox="0 0 50 50" fill="none" xmlns="http://www.w3.org/2000/svg"><path d="M12.5 10C11.837 10 11.2011 9.73661 10.7322 9.26777C10.2634 8.79893 10 8.16304 10 7.5V2.5C10 1.83696 10.2634 1.20107 10.7322 0.732233C11.2011 0.263392 11.837 0 12.5 0C13.163 0 13.7989 0.263392 14.2678 0.732233C14.7366 1.20107 15 1.83696 15 2.5V7.5C15 8.16261 14.737 8.79811 14.2687 9.26688C13.8004 9.73565 13.1651 9.99934 12.5025 10H12.5ZM37.5 10C36.837 10 36.2011 9.73661 35.7322 9.26777C35.2634 8.79893 35 8.16304 35 7.5V2.5C35 1.83696 35.2634 1.20107 35.7322 0.732233C36.2011 0.263392 36.837 0 37.5 0C38.163 0 38.7989 0.263392 39.2678 0.732233C39.7366 1.20107 40 1.83696 40 2.5V7.5C40 8.16261 39.737 8.79811 39.2687 9.26688C38.8004 9.73565 38.1651 9.99934 37.5025 10H37.5Z" fill="#FDE5D2"/><path d="M42.5 5H40V7.5C40 8.16304 39.7366 8.79893 39.2678 9.26777C38.7989 9.73661 38.163 10 37.5 10C36.837 10 36.2011 9.73661 35.7322 9.26777C35.2634 8.79893 35 8.16304 35 7.5V5H15V7.5C15 8.16304 14.7366 8.79893 14.2678 9.26777C13.7989 9.73661 13.163 10 12.5 10C11.837 10 11.2011 9.73661 10.7322 9.26777C10.2634 8.79893 10 8.16304 10 7.5V5H7.5C5.51088 5 3.60322 5.79018 2.1967 7.1967C0.790177 8.60322 0 10.5109 0 12.5V17.5H50V12.5C50 10.5109 49.2098 8.60322 47.8033 7.1967C46.3968 5.79018 44.4891 5 42.5 5Z" fill="#21022C"/><path d="M12.5 30C13.8807 30 15 28.8807 15 27.5C15 26.1193 13.8807 25 12.5 25C11.1193 25 10 26.1193 10 27.5C10 28.8807 11.1193 30 12.5 30Z" fill="#21022C"/><path d="M12.5 40C13.8807 40 15 38.8807 15 37.5C15 36.1193 13.8807 35 12.5 35C11.1193 35 10 36.1193 10 37.5C10 38.8807 11.1193 40 12.5 40Z" fill="#21022C"/><path d="M25 30C26.3807 30 27.5 28.8807 27.5 27.5C27.5 26.1193 26.3807 25 25 25C23.6193 25 22.5 26.1193 22.5 27.5C22.5 28.8807 23.6193 30 25 30Z" fill="#21022C"/><path d="M25 40C26.3807 40 27.5 38.8807 27.5 37.5C27.5 36.1193 26.3807 35 25 35C23.6193 35 22.5 36.1193 22.5 37.5C22.5 38.8807 23.6193 40 25 40Z" fill="#21022C"/><path d="M37.5 30C38.8807 30 40 28.8807 40 27.5C40 26.1193 38.8807 25 37.5 25C36.1193 25 35 26.1193 35 27.5C35 28.8807 36.1193 30 37.5 30Z" fill="#21022C"/><path d="M37.5 40C38.8807 40 40 38.8807 40 37.5C40 36.1193 38.8807 35 37.5 35C36.1193 35 35 36.1193 35 37.5C35 38.8807 36.1193 40 37.5 40Z" fill="#21022C"/><path d="M0 17.5V42.5C0 44.4891 0.790177 46.3968 2.1967 47.8033C3.60322 49.2098 5.51088 50 7.5 50H42.5C44.4891 50 46.3968 49.2098 47.8033 47.8033C49.2098 46.3968 50 44.4891 50 42.5V17.5H0ZM12.5 40C11.837 40 11.2011 39.7366 10.7322 39.2678C10.2634 38.7989 10 38.163 10 37.5C10 36.837 10.2634 36.2011 10.7322 35.7322C11.2011 35.2634 11.837 35 12.5 35C13.163 35 13.7989 35.2634 14.2678 35.7322C14.7366 36.2011 15 36.837 15 37.5C15 38.163 14.7366 38.7989 14.2678 39.2678C13.7989 39.7366 13.163 40 12.5 40ZM12.5 30C11.837 30 11.2011 29.7366 10.7322 29.2678C10.2634 28.7989 10 28.163 10 27.5C10 26.837 10.2634 26.2011 10.7322 25.7322C11.2011 25.2634 11.837 25 12.5 25C13.163 25 13.7989 25.2634 14.2678 25.7322C14.7366 26.2011 15 26.837 15 27.5C15 28.163 14.7366 28.7989 14.2678 29.2678C13.7989 29.7366 13.163 30 12.5 30ZM25 40C24.337 40 23.7011 39.7366 23.2322 39.2678C22.7634 38.7989 22.5 38.163 22.5 37.5C22.5 36.837 22.7634 36.2011 23.2322 35.7322C23.7011 35.2634 24.337 35 25 35C25.663 35 26.2989 35.2634 26.7678 35.7322C27.2366 36.2011 27.5 36.837 27.5 37.5C27.5 38.163 27.2366 38.7989 26.7678 39.2678C26.2989 39.7366 25.663 40 25 40ZM25 30C24.337 30 23.7011 29.7366 23.2322 29.2678C22.7634 28.7989 22.5 28.163 22.5 27.5C22.5 26.837 22.7634 26.2011 23.2322 25.7322C23.7011 25.2634 24.337 25 25 25C25.663 25 26.2989 25.2634 26.7678 25.7322C27.2366 26.2011 27.5 26.837 27.5 27.5C27.5 28.163 27.2366 28.7989 26.7678 29.2678C26.2989 29.7366 25.663 30 25 30ZM37.5 40C36.837 40 36.2011 39.7366 35.7322 39.2678C35.2634 38.7989 35 38.163 35 37.5C35 36.837 35.2634 36.2011 35.7322 35.7322C36.2011 35.2634 36.837 35 37.5 35C38.163 35 38.7989 35.2634 39.2678 35.7322C39.7366 36.2011 40 36.837 40 37.5C40 38.163 39.7366 38.7989 39.2678 39.2678C38.7989 39.7366 38.163 40 37.5 40ZM37.5 30C36.837 30 36.2011 29.7366 35.7322 29.2678C35.2634 28.7989 35 28.163 35 27.5C35 26.837 35.2634 26.2011 35.7322 25.7322C36.2011 25.2634 36.837 25 37.5 25C38.163 25 38.7989 25.2634 39.2678 25.7322C39.7366 26.2011 40 26.837 40 27.5C40 28.163 39.7366 28.7989 39.2678 29.2678C38.7989 29.7366 38.163 30 37.5 30Z" fill="#FDE5D2"/></svg>