<svg width="50" height="50" fill="none" xmlns="http://www.w3.org/2000/svg"><path d="M12.5 10A2.5 2.5 0 0 1 10 7.5v-5a2.5 2.5 0 0 1 5 0v5a2.5 2.5 0 0 1-2.498 2.5H12.5Zm25 0A2.5 2.5 0 0 1 35 7.5v-5a2.5 2.5 0 0 1 5 0v5a2.5 2.5 0 0 1-2.498 2.5H37.5Z" fill="#FDE5D2"/><path d="M42.5 5H40v2.5a2.5 2.5 0 0 1-5 0V5H15v2.5a2.5 2.5 0 0 1-5 0V5H7.5A7.5 7.5 0 0 0 0 12.5v5h50v-5A7.5 7.5 0 0 0 42.5 5Zm-30 25a2.5 2.5 0 1 0 0-5 2.5 2.5 0 0 0 0 5Zm0 10a2.5 2.5 0 1 0 0-5 2.5 2.5 0 0 0 0 5ZM25 30a2.5 2.5 0 1 0 0-5 2.5 2.5 0 0 0 0 5Zm0 10a2.5 2.5 0 1 0 0-5 2.5 2.5 0 0 0 0 5Zm12.5-10a2.5 2.5 0 1 0 0-5 2.5 2.5 0 0 0 0 5Zm0 10a2.5 2.5 0 1 0 0-5 2.5 2.5 0 0 0 0 5Z" fill="#21022C"/><path d="M0 17.5v25A7.5 7.5 0 0 0 7.5 50h35a7.5 7.5 0 0 0 7.5-7.5v-25H0ZM12.5 40a2.5 2.5 0 1 1 0-5 2.5 2.5 0 0 1 0 5Zm0-10a2.5 2.5 0 1 1 0-5 2.5 2.5 0 0 1 0 5ZM25 40a2.5 2.5 0 1 1 0-5 2.5 2.5 0 0 1 0 5Zm0-10a2.5 2.5 0 1 1 0-5 2.5 2.5 0 0 1 0 5Zm12.5 10a2.5 2.5 0 1 1 0-5 2.5 2.5 0 0 1 0 5Zm0-10a2.5 2.5 0 1 1 0-5 2.5 2.5 0 0 1 0 5Z" fill="#FDE5D2"/></svg>