<svg width="50" height="50" fill="none" xmlns="http://www.w3.org/2000/svg"><mask id="a" fill="#fff"><path d="M5.41 44.14c1.357.326 2.621.348 3.068.346l29.296 3.581c.066.007.132.012.196.012 0 0 6.78.035 10.15-4.973 1.418-2.104 2.292-5.113 1.684-9.445-.548-3.9-4.171-9.472-10.575-10.15-2.889-.306-5.718.61-8.062 1.87-2.01 1.081-3.653 2.401-4.635 3.274-1.543-.751-4.225-1.902-6.183-1.902-2.28 0-4.15.418-5.606.94 0-.94-.031-1.693-.236-2.644-.475-2.215-1.272-7.053-1.658-9.44a10.36 10.36 0 0 0 1.384-.859c1.559-1.16 3.041-3.016 2.957-5.695-.109-3.476-2.676-7.134-7.18-7.134-2.37 0-3.882.792-4.867 1.677C3.51 5.063 3.268 6.91 3.268 6.91c-.004.027-.005.051-.01.078L.008 37.533a2.294 2.294 0 0 0-.008.216s.047 2.715 1.87 4.55c.946.954 2.268 1.534 3.54 1.84Z"/></mask><path d="M5.41 44.14c1.357.326 2.621.348 3.068.346l29.296 3.581c.066.007.132.012.196.012 0 0 6.78.035 10.15-4.973 1.418-2.104 2.292-5.113 1.684-9.445-.548-3.9-4.171-9.472-10.575-10.15-2.889-.306-5.718.61-8.062 1.87-2.01 1.081-3.653 2.401-4.635 3.274-1.543-.751-4.225-1.902-6.183-1.902-2.28 0-4.15.418-5.606.94 0-.94-.031-1.693-.236-2.644-.475-2.215-1.272-7.053-1.658-9.44a10.36 10.36 0 0 0 1.384-.859c1.559-1.16 3.041-3.016 2.957-5.695-.109-3.476-2.676-7.134-7.18-7.134-2.37 0-3.882.792-4.867 1.677C3.51 5.063 3.268 6.91 3.268 6.91c-.004.027-.005.051-.01.078L.008 37.533a2.294 2.294 0 0 0-.008.216s.047 2.715 1.87 4.55c.946.954 2.268 1.534 3.54 1.84Z" fill="#FDE5D2"/><path d="m8.478 44.486.364-2.977-.187-.023h-.188l.011 3ZM5.41 44.14l-.702 2.917.702-2.917ZM1.87 42.3l-2.13 2.114h.001L1.87 42.3ZM0 37.75h-3v.053l3-.053Zm.008-.216-2.983-.318-.001.017-.002.016 2.986.285ZM3.258 6.99.309 6.436l-.022.117-.013.119 2.984.317Zm.01-.078-2.975-.39-.001.01-.001.008 2.977.372Zm1.875-3.313L7.146 5.83l.002-.002-2.005-2.231ZM17.19 9.055l-2.999.094v.001l2.999-.095Zm-2.957 5.695 1.783 2.413.008-.006-1.79-2.407Zm-1.384.86-1.38-2.664-1.928.998.347 2.145 2.961-.48Zm1.659 9.44 2.933-.63-2.933.63Zm.235 2.643h-3a3 3 0 0 0 4.011 2.824l-1.011-2.824Zm11.79.962-1.314 2.698 1.806.88 1.501-1.336-1.994-2.242Zm4.634-3.274-1.42-2.643 1.42 2.643Zm8.062-1.87-.316 2.983.316-2.983Zm10.575 10.15 2.971-.416v-.001l-2.97.417Zm-1.684 9.445-2.487-1.677-.001.002 2.488 1.675Zm-10.15 4.973.015-3h-.015v3Zm-.196-.012-.364 2.978.029.004.029.003.306-2.985Zm-29.307-6.58a10.506 10.506 0 0 1-2.355-.264l-1.404 5.833c1.698.409 3.237.432 3.782.43l-.023-6Zm-2.355-.264c-.955-.23-1.694-.615-2.113-1.037L-.26 44.414c1.473 1.483 3.377 2.26 4.967 2.642l1.404-5.833ZM4 40.187c-.41-.413-.685-1.002-.847-1.616A5.202 5.202 0 0 1 3 37.683l-.001-.02a1.05 1.05 0 0 1 0 .02v.012c0 .001 0 .002-2.999.054-3 .053-3 .054-3 .055v.016a3.612 3.612 0 0 0 .003.077l.008.16a11.202 11.202 0 0 0 .34 2.045c.317 1.201.977 2.888 2.39 4.311l4.258-4.226Zm-1-2.439v-.003l-.005.071-5.973-.569c-.02.209-.022.39-.022.501h6Zm-.008.101L6.24 7.306.274 6.672l-3.249 30.543 5.967.635ZM6.206 7.542c.02-.11.032-.2.037-.244l.003-.026v-.008l.001-.003-.002.022L.29 6.54a4.363 4.363 0 0 0-.007.062l-.001.006v.003-.007c.003-.02.01-.084.026-.167l5.897 1.106Zm-2.938-.63c2.974.389 2.974.39 2.974.391v.006l-.002.008a1.834 1.834 0 0 1-.008.054s.003-.02.012-.055a3.046 3.046 0 0 1 .902-1.485L3.14 1.365A9.045 9.045 0 0 0 .418 5.884a6.98 6.98 0 0 0-.124.628v.007c0 .002 0 .003 2.974.392Zm3.88-1.083c.445-.4 1.247-.908 2.862-.908v-6c-3.124 0-5.347 1.075-6.872 2.445l4.01 4.463Zm2.862-.908c2.527 0 4.111 1.99 4.181 4.228l5.997-.187C20.041 4.249 16.492-1.079 10.01-1.079v6Zm4.181 4.23c.043 1.358-.66 2.382-1.748 3.192l3.58 4.814c2.03-1.508 4.292-4.197 4.165-8.196l-5.997.19Zm-1.74 3.186a7.358 7.358 0 0 1-.981.609l2.758 5.328c.548-.283 1.163-.65 1.788-1.11l-3.565-4.827Zm-2.563 3.752c.38 2.356 1.191 7.282 1.686 9.59l5.867-1.26c-.456-2.122-1.24-6.872-1.63-9.288l-5.923.958Zm1.686 9.59c.14.65.169 1.161.169 2.014h6c0-1.027-.034-2.022-.302-3.273l-5.867 1.259Zm4.18 4.838c1.16-.416 2.69-.764 4.595-.764v-6c-2.654 0-4.867.488-6.618 1.115l2.023 5.649Zm4.595-.764c.48 0 1.266.16 2.27.506.953.328 1.89.748 2.6 1.094l2.627-5.395a29.925 29.925 0 0 0-3.273-1.372c-1.212-.417-2.746-.833-4.224-.833v6Zm8.177 1.144c.878-.78 2.327-1.94 4.063-2.874l-2.843-5.284c-2.285 1.23-4.122 2.71-5.208 3.675l3.988 4.483Zm4.061-2.873c2.042-1.097 4.252-1.75 6.326-1.53l.633-5.966c-3.704-.393-7.152.789-9.798 2.21l2.84 5.286Zm6.326-1.53c4.707.5 7.514 4.691 7.92 7.585l5.942-.835c-.69-4.908-5.13-11.858-13.23-12.716l-.632 5.966Zm7.92 7.584c.52 3.705-.253 5.945-1.2 7.351l4.975 3.354c1.889-2.802 2.862-6.58 2.167-11.538l-5.942.833Zm-1.201 7.353c-1.149 1.705-2.947 2.65-4.691 3.16-.854.248-1.628.372-2.184.433a10.077 10.077 0 0 1-.788.055h.014c.001 0 .002 0-.013 3s-.014 3-.013 3h.053l.095-.001.3-.01c.249-.012.59-.034 1.002-.08.82-.089 1.952-.27 3.214-.638 2.488-.725 5.765-2.267 7.988-5.569l-4.977-3.35Zm-7.662 3.648c.046 0 .079.002.096.003l.014.001-.612 5.969c.107.01.289.027.502.027v-6Zm.168.01L8.842 41.51l-.728 5.955 29.296 3.581.728-5.955Z" fill="#21022C" mask="url(#a)"/></svg>