<svg width="50" height="50" fill="none" xmlns="http://www.w3.org/2000/svg"><path d="M7.934 6.564a2 2 0 0 0-1.262.108 2.003 2.003 0 0 0-.36-.342l17.224-4.158h.002a6.349 6.349 0 0 1 2.933 0h.003l16.865 4.084-7.703 1.86a2 2 0 0 0-1.316 2.846c.724 1.435 1.15 3.003 1.15 4.665 0 5.803-4.691 10.5-10.47 10.5-5.779 0-10.47-4.697-10.47-10.5 0-1.656.432-3.227 1.154-4.674a2 2 0 0 0-1.32-2.837l-6.43-1.552Zm-1.777 8.794c.048-.028.094-.059.138-.09.045.031.091.062.139.09a.5.5 0 0 1 .167.156.2.2 0 0 1 .004.213.507.507 0 0 1-.158.157 2.005 2.005 0 0 0-.152.11 2.003 2.003 0 0 0-.151-.11.507.507 0 0 1-.158-.157.2.2 0 0 1 .004-.213.493.493 0 0 1 .167-.156Zm-.418 7.643.556-2.23.557 2.23H5.738Zm2.245 14.205c1.806-1.822 4.508-3.184 8.02-3.937h.002l.183-.027.688-.096c.586-.08 1.405-.184 2.331-.285 1.881-.206 4.105-.388 5.737-.343 1.703.047 3.967.238 5.839.423a179.92 179.92 0 0 1 3.024.325l.184.022.022.002c6.466 1.063 10.808 5.293 10.808 11.085v.938A2.683 2.683 0 0 1 42.146 48H7.854a2.683 2.683 0 0 1-2.676-2.687v-.938c0-3.021 1.026-5.374 2.806-7.169Z" fill="#FDE5D2" stroke="#000" stroke-width="4" stroke-linejoin="round"/></svg>